HIERARCHY
ROOT Hips
{
	OFFSET 0.000000 0.000000 0.000000
	CHANNELS 6 Xposition Yposition Zposition Zrotation Xrotation Yrotation
	JOINT Spine
	{
		OFFSET 0.000000 7.322665 -0.000001
		CHANNELS 3 Zrotation Xrotation Yrotation
		JOINT Spine1
		{
			OFFSET 0.000000 17.707638 -0.000002
			CHANNELS 3 Zrotation Xrotation Yrotation
			JOINT Neck
			{
				OFFSET 0.000000 19.493652 -0.000002
				CHANNELS 3 Zrotation Xrotation Yrotation
				JOINT Head
				{
					OFFSET 0.000000 13.841621 1.786014
					CHANNELS 3 Zrotation Xrotation Yrotation
					End Site
					{
						OFFSET 0.000000 17.860161 -0.000002
					}
				}
			}
			JOINT LeftShoulder
			{
				OFFSET 3.552432 16.070168 -0.180037
				CHANNELS 3 Zrotation Xrotation Yrotation
				JOINT LeftArm
				{
					OFFSET 10.355261 0.000000 0.000000
					CHANNELS 3 Zrotation Xrotation Yrotation
					JOINT LeftForeArm
					{
						OFFSET 27.312889 0.000000 0.000000
						CHANNELS 3 Zrotation Xrotation Yrotation
						JOINT LeftHand
						{
							OFFSET 21.407238 0.000000 0.000000
							CHANNELS 3 Zrotation Xrotation Yrotation
							End Site
							{
								OFFSET 13.395115 0.000000 0.000000
							}
						}
					}
				}
			}
			JOINT RightShoulder
			{
				OFFSET -3.589735 16.070168 -0.180037
				CHANNELS 3 Zrotation Xrotation Yrotation
				JOINT RightArm
				{
					OFFSET -10.355261 0.000000 0.000000
					CHANNELS 3 Zrotation Xrotation Yrotation
					JOINT RightForeArm
					{
						OFFSET -27.312885 0.000000 0.000000
						CHANNELS 3 Zrotation Xrotation Yrotation
						JOINT RightHand
						{
							OFFSET -21.407238 0.000000 0.000000
							CHANNELS 3 Zrotation Xrotation Yrotation
							End Site
							{
								OFFSET -13.395123 0.000000 0.000000
							}
						}
					}
				}
			}
		}
	}
	JOINT LeftUpLeg
	{
		OFFSET 8.930079 0.000000 0.000000
		CHANNELS 3 Zrotation Xrotation Yrotation
		JOINT LeftLeg
		{
			OFFSET 0.000000 -43.123249 0.000005
			CHANNELS 3 Zrotation Xrotation Yrotation
			JOINT LeftFoot
			{
				OFFSET 0.000000 -33.635326 0.000004
				CHANNELS 3 Zrotation Xrotation Yrotation
				JOINT LeftToeBase
				{
					OFFSET 0.000000 -5.804550 13.395120
					CHANNELS 3 Zrotation Xrotation Yrotation
					End Site
					{
						OFFSET 0.000000 0.000000 3.572030
					}
				}
			}
		}
	}
	JOINT RightUpLeg
	{
		OFFSET -8.930079 0.000000 0.000000
		CHANNELS 3 Zrotation Xrotation Yrotation
		JOINT RightLeg
		{
			OFFSET 0.000000 -43.123249 0.000005
			CHANNELS 3 Zrotation Xrotation Yrotation
			JOINT RightFoot
			{
				OFFSET 0.000000 -33.635326 0.000004
				CHANNELS 3 Zrotation Xrotation Yrotation
				JOINT RightToeBase
				{
					OFFSET 0.000000 -5.804550 13.395120
					CHANNELS 3 Zrotation Xrotation Yrotation
					End Site
					{
						OFFSET 0.000000 0.000000 3.572030
					}
				}
			}
		}
	}
}
MOTION
Frames: 18
Frame Time: 0.008333
1.307122 0.484459 1.892083 2.240658 -15.969063 9.931077 -7.698380 21.550485 2.243600 5.405938 -2.474628 0.094989 4.270385 5.829608 -8.194120 4.248530 3.027072 -1.205971 -4.922981 2.459328 -1.577187 -83.689481 3.961130 -15.456826 -6.303331 -18.764792 -18.951372 -6.052796 37.092018 34.250731 3.666619 0.545574 -12.088952 66.978030 44.639179 27.748311 3.399659 -8.160724 22.708753 -32.383873 16.478448 -21.586545 -1.733906 20.943541 1.435394 0.000001 1.859131 0.000002 3.881063 -4.994730 -1.805779 0.000003 -0.346108 -0.000003 -1.336263 24.624248 -7.095581 -0.000367 -4.706728 -0.000062 -7.571863 -1.435887 7.204005 0.000013 -11.967790 0.000007
1.353363 0.476322 1.877707 2.235454 -15.895612 10.077019 -7.651837 21.530100 2.087542 5.510592 -2.424319 0.311708 4.213357 5.757059 -8.396633 4.250554 3.016830 -1.205973 -5.027721 2.428344 -1.779446 -83.667358 3.980429 -15.440565 -6.326490 -18.730556 -19.047760 -5.998561 37.134919 34.296938 3.550637 0.484241 -12.303217 66.991117 44.657877 27.744983 3.418733 -8.222102 22.671375 -32.516908 16.364331 -21.619459 -1.748213 20.773223 1.142977 0.000000 2.004549 -0.000001 3.963947 -5.074764 -1.569849 0.000003 -0.292621 -0.000008 -1.317619 24.506961 -7.416382 -0.000359 -4.597773 -0.000064 -7.548196 -1.497208 7.365853 0.000010 -12.071250 0.000001
1.348585 0.479474 1.894052 2.232087 -15.868399 10.060951 -7.663295 21.539968 2.101946 5.493919 -2.441579 0.299310 4.239874 5.732196 -8.402297 4.257143 3.025467 -1.207730 -5.029354 2.445083 -1.753701 -83.650167 3.977198 -15.444398 -6.333056 -18.680742 -19.111668 -6.009661 37.226723 34.382240 3.582118 0.497485 -12.301106 66.935943 44.708946 27.778308 3.450551 -8.313589 22.636806 -32.886869 16.254846 -21.432874 -1.748195 20.734081 1.114395 0.000004 2.071045 0.000001 3.977459 -5.098951 -1.525929 0.000003 -0.309533 -0.000004 -1.338948 24.424500 -7.295503 -0.000335 -4.453609 -0.000060 -7.556065 -1.590576 7.277340 0.000003 -11.969660 0.000005
1.338338 0.481932 1.906394 2.207792 -15.837023 10.032272 -7.650013 21.516686 2.125623 5.467443 -2.418861 0.257015 4.243755 5.707570 -8.379362 4.276531 3.036002 -1.215369 -5.014310 2.418709 -1.755977 -83.639321 3.965703 -15.386087 -6.362329 -18.665850 -19.207853 -6.028839 37.283014 34.435150 3.623257 0.474413 -12.256235 66.884921 44.768946 27.766830 3.500687 -8.431755 22.645661 -33.277874 16.109191 -21.267852 -1.725138 20.662207 1.103785 -0.000002 2.170456 0.000002 3.972263 -5.157495 -1.512528 0.000003 -0.291011 -0.000004 -1.336918 24.335858 -7.185876 -0.000308 -4.324805 -0.000058 -7.532840 -1.678641 7.184944 0.000008 -11.868005 -0.000005
1.337412 0.485765 1.920010 2.190920 -15.838365 10.014887 -7.647262 21.532716 2.134738 5.479084 -2.394592 0.252187 4.228972 5.674922 -8.386200 4.275619 3.052247 -1.216749 -5.041415 2.394627 -1.743816 -83.613181 3.992146 -15.376318 -6.358216 -18.587808 -19.268502 -6.128081 37.304700 34.591203 3.614607 0.451056 -12.242403 66.893315 44.775684 27.739666 3.487076 -8.404576 22.631682 -33.251676 15.914949 -21.415846 -1.708048 20.625790 1.039086 0.000006 2.262478 0.000002 3.942639 -5.206512 -1.454336 0.000004 -0.283875 -0.000006 -1.328386 24.284946 -7.137594 -0.000273 -4.210650 -0.000051 -7.567355 -1.716601 7.116445 0.000010 -11.930431 -0.000001
1.342157 0.488879 1.945880 2.190567 -15.830425 10.007556 -7.633226 21.557969 2.134588 5.446193 -2.446447 0.259606 4.227624 5.710573 -8.436694 4.263205 3.087711 -1.215785 -5.043959 2.447886 -1.764289 -83.609753 3.948090 -15.384933 -6.326986 -18.466484 -19.292559 -6.309532 37.347830 34.767668 3.621831 0.507338 -12.256694 66.912303 44.745399 27.748139 3.486062 -8.420994 22.586211 -32.978359 15.883094 -21.674214 -1.707754 20.582589 0.982549 -0.000009 2.368319 0.000001 3.977053 -5.232405 -1.405515 0.000002 -0.352187 -0.000004 -1.337948 24.241583 -7.047780 -0.000264 -4.101254 -0.000049 -7.608792 -1.762705 7.038486 0.000003 -11.949092 0.000007
1.339873 0.487770 1.978474 2.180726 -15.819302 9.982818 -7.629595 21.569664 2.153752 5.419561 -2.511058 0.234553 4.234731 5.765750 -8.420673 4.274893 3.113235 -1.218140 -5.029975 2.510398 -1.733249 -83.617642 3.928359 -15.410708 -6.278703 -18.342220 -19.270931 -6.618239 37.411559 35.050092 3.636971 0.575487 -12.238229 66.914735 44.732647 27.765300 3.493754 -8.464718 22.526614 -32.853295 15.891067 -21.856868 -1.705118 20.574236 0.966907 0.000015 2.424321 0.000001 4.007084 -5.265726 -1.346288 0.000004 -0.362168 -0.000004 -1.343073 24.190858 -6.908778 -0.000253 -3.978917 -0.000047 -7.602908 -1.812848 6.922453 0.000007 -12.000728 0.000002
1.335853 0.481766 1.994887 2.144726 -15.772053 9.968128 -7.613042 21.537977 2.139399 5.424706 -2.519547 0.234732 4.220210 5.742566 -8.435203 4.289892 3.156695 -1.222330 -5.044457 2.519394 -1.694418 -83.608407 3.958849 -15.443732 -6.244150 -18.272433 -19.237489 -6.958445 37.512003 35.392544 3.655686 0.576843 -12.250773 66.870680 44.763906 27.784072 3.528203 -8.558680 22.503844 -33.026741 15.843916 -21.820750 -1.685250 20.489977 0.928136 0.000008 2.532908 0.000005 4.029734 -5.355297 -1.263531 0.000005 -0.312800 -0.000003 -1.334160 24.070751 -6.777099 -0.000214 -3.811868 -0.000041 -7.568872 -1.904588 6.790158 0.000010 -11.952647 0.000006
1.341704 0.480350 2.014453 2.136620 -15.747141 9.977363 -7.607633 21.515055 2.096601 5.435981 -2.496789 0.285372 4.193054 5.720215 -8.487033 4.288784 3.191686 -1.225085 -5.086196 2.502289 -1.728627 -83.579659 3.978188 -15.452608 -6.213342 -18.223985 -19.194218 -7.174802 37.586411 35.751836 3.647943 0.547470 -12.316375 66.853277 44.812168 27.774954 3.569096 -8.652333 22.519163 -32.957415 15.930218 -21.928216 -1.677504 20.400692 0.749286 0.000011 2.688463 0.000004 4.001608 -5.439206 -1.119901 0.000003 -0.270742 -0.000006 -1.343164 23.997030 -6.701318 -0.000178 -3.671900 -0.000035 -7.590031 -2.000227 6.693981 0.000005 -11.896572 0.000004
1.349639 0.483318 2.042747 2.146350 -15.753669 9.974327 -7.623914 21.540248 2.093196 5.445987 -2.513421 0.304819 4.188756 5.737835 -8.493777 4.304216 3.193633 -1.229082 -5.109333 2.520918 -1.761189 -83.565056 3.990097 -15.458267 -6.201887 -18.201049 -19.182923 -7.459244 37.667667 36.094862 3.638593 0.561048 -12.347012 66.877941 44.784208 27.755418 3.772421 -9.102474 22.625640 -31.755585 16.522354 -23.024153 -1.684592 20.353487 0.643126 -0.000004 2.831202 -0.000002 4.029248 -5.477774 -1.038132 0.000002 -0.343927 -0.000001 -1.361632 23.971075 -6.608647 -0.000184 -3.559205 -0.000035 -7.629286 -2.066812 6.602103 0.000010 -11.893021 0.000002
1.336259 0.485243 2.070323 2.123214 -15.746414 9.921774 -7.639012 21.528198 2.127081 5.443125 -2.504848 0.255701 4.198982 5.746241 -8.424010 4.337612 3.201659 -1.237429 -5.093961 2.507462 -1.730363 -83.570069 3.998962 -15.438461 -6.182563 -18.134427 -19.190057 -7.626699 37.755063 36.282498 3.674207 0.544416 -12.321198 66.838660 44.812301 27.770569 3.832096 -9.249351 22.623086 -31.151055 16.921234 -23.699182 -1.668421 20.342171 0.733192 -0.000004 2.888521 0.000000 4.053667 -5.510920 -1.064334 0.000003 -0.370065 -0.000007 -1.353848 23.911990 -6.425126 -0.000149 -3.434184 -0.000032 -7.666357 -2.104861 6.463256 0.000001 -11.932326 -0.000001
1.330484 0.487554 2.101203 2.107904 -15.753474 9.903061 -7.636402 21.529152 2.116439 5.431701 -2.499045 0.252352 4.212868 5.747608 -8.404729 4.358915 3.225647 -1.243500 -5.066218 2.500955 -1.718115 -83.588736 4.039924 -15.436547 -6.171300 -18.125831 -19.165379 -7.439556 37.842578 36.287791 3.725661 0.530250 -12.316907 66.800343 44.794235 27.765110 3.666706 -8.904887 22.489142 -32.027368 16.651320 -22.926443 -1.651567 20.332206 0.726870 -0.000020 2.975595 0.000001 4.070324 -5.562980 -1.042777 0.000004 -0.375107 -0.000008 -1.347580 23.879970 -6.323873 -0.000152 -3.309977 -0.000034 -7.659588 -2.169759 6.373247 0.000011 -11.914856 0.000002
1.327291 0.482325 2.126930 2.078432 -15.723724 9.896976 -7.621535 21.487963 2.077656 5.434173 -2.478690 0.282575 4.207109 5.722751 -8.426217 4.374243 3.267127 -1.248562 -5.065786 2.483474 -1.720813 -83.583012 4.118668 -15.428356 -6.218582 -18.243715 -19.190806 -7.338903 37.866285 36.434985 3.742940 0.506813 -12.327379 66.831202 44.752045 27.687779 3.667690 -8.903226 22.498145 -32.344675 16.505934 -22.436138 -1.630256 20.202970 0.661950 -0.000004 3.212930 -0.000006 4.069294 -5.710227 -0.943649 0.000003 -0.327988 -0.000006 -1.328609 23.795530 -6.286205 -0.000137 -3.170027 -0.000030 -7.672763 -2.254095 6.312633 0.000012 -11.940757 0.000003
1.333146 0.478137 2.159081 2.085543 -15.709795 9.902497 -7.629183 21.471321 2.044050 5.429633 -2.477109 0.333341 4.202646 5.703326 -8.463554 4.395157 3.279600 -1.253210 -5.075569 2.487101 -1.735275 -83.581749 4.152276 -15.462251 -6.171427 -18.166630 -19.127226 -7.292070 37.861221 36.552034 3.762081 0.497130 -12.388003 66.833626 44.720155 27.646845 3.746552 -9.064258 22.570582 -32.116226 16.586566 -22.577725 -1.636482 20.146085 0.577980 0.000007 3.348990 0.000003 4.081289 -5.772651 -0.878512 0.000003 -0.332951 -0.000003 -1.350058 23.745059 -6.202880 -0.000126 -3.030214 -0.000027 -7.672880 -2.358900 6.231695 0.000006 -11.878110 0.000008
1.338020 0.476132 2.196478 2.074951 -15.719452 9.894791 -7.598250 21.481087 2.025291 5.397080 -2.511522 0.346059 4.187832 5.741725 -8.485773 4.399590 3.314494 -1.255155 -5.074598 2.523553 -1.719973 -83.582705 4.196843 -15.513405 -6.097672 -18.018147 -19.053185 -7.240755 37.879631 36.761752 3.775378 0.534879 -12.402823 66.858352 44.654824 27.585722 3.810763 -9.166603 22.690479 -32.006400 16.682433 -22.779347 -1.622528 20.120392 0.494744 -0.000004 3.483822 -0.000005 4.076786 -5.850406 -0.792007 0.000004 -0.322720 -0.000005 -1.342175 23.724947 -6.100138 -0.000116 -2.913850 -0.000026 -7.683434 -2.411389 6.120187 0.000009 -11.967892 0.000008
1.305179 0.475255 2.186849 2.007936 -15.676613 9.693589 -7.612458 21.388522 2.188907 5.401372 -2.362282 0.087203 4.145449 5.652315 -8.190916 4.419401 3.329092 -1.260520 -5.121022 2.352935 -1.437954 -83.538828 4.292754 -15.533592 -6.102371 -18.035862 -19.050173 -7.312261 37.879949 37.180387 3.804077 0.395160 -12.135712 66.909291 44.542324 27.499701 3.837046 -9.215015 22.724675 -31.812907 16.939764 -22.859318 -1.609741 19.990184 0.647726 0.000011 3.650240 0.000002 4.150184 -5.901724 -0.754533 0.000002 -0.386644 -0.000009 -1.356055 23.496764 -5.656095 -0.000071 -2.645997 -0.000017 -7.725085 -2.493691 5.851199 0.000008 -12.005138 0.000004
1.307272 0.474152 2.225224 2.006015 -15.676276 9.668584 -7.655781 21.337357 2.182853 5.456136 -2.318574 0.107553 4.095427 5.650391 -8.169732 4.456126 3.372395 -1.271259 -5.172831 2.311412 -1.395866 -83.515619 4.330349 -15.557409 -6.006529 -17.844339 -18.950826 -7.568417 37.942459 37.679135 3.822161 0.341999 -12.109279 67.014169 44.388180 27.357973 3.849657 -9.257871 22.698208 -31.553732 17.108565 -22.948628 -1.618571 19.971500 0.555497 0.000002 3.754076 0.000002 4.118937 -5.974438 -0.638631 0.000002 -0.361049 -0.000007 -1.378174 23.458884 -5.508516 -0.000067 -2.506037 -0.000015 -7.723830 -2.601737 5.736040 0.000004 -11.945488 0.000000
1.315500 0.472177 2.256695 1.998897 -15.649266 9.663037 -7.678573 21.294416 2.158135 5.493941 -2.315564 0.149994 4.053315 5.628111 -8.203616 4.482832 3.445160 -1.277199 -5.218878 2.312962 -1.325798 -83.483927 4.444736 -15.670279 -5.936302 -17.796961 -18.788290 -7.968094 38.062448 38.301133 3.836658 0.325824 -12.146242 67.073141 44.252830 27.263976 3.930024 -9.428689 22.751247 -31.283810 17.496496 -22.929906 -1.623840 19.878045 0.433082 -0.000002 3.937438 0.000003 4.156176 -6.063208 -0.509431 0.000005 -0.365027 -0.000003 -1.393674 23.384811 -5.422076 -0.000052 -2.350445 -0.000011 -7.717812 -2.721614 5.657788 0.000009 -11.822861 0.000009
